<?xml version="1.0" encoding="UTF-8" standalone="no"?>
<!DOCTYPE svg PUBLIC "-//W3C//DTD SVG 1.1//EN"
 "http://www.w3.org/Graphics/SVG/1.1/DTD/svg11.dtd">
<!-- Generated by graphviz version 2.40.1 (20161225.0304)
 -->
<!-- Title: G Pages: 1 -->
<svg width="176pt" height="222pt"
 viewBox="0.00 0.00 176.00 222.00" xmlns="http://www.w3.org/2000/svg" xmlns:xlink="http://www.w3.org/1999/xlink">
<g id="graph0" class="graph" transform="scale(1 1) rotate(0) translate(4 218)">
<title>G</title>
<polygon fill="#ffffff" stroke="transparent" points="-4,4 -4,-218 172,-218 172,4 -4,4"/>
<g id="clust1" class="cluster">
<title>cluster_Global</title>
<path fill="none" stroke="#c0c0c0" d="M20,-8C20,-8 148,-8 148,-8 154,-8 160,-14 160,-20 160,-20 160,-194 160,-194 160,-200 154,-206 148,-206 148,-206 20,-206 20,-206 14,-206 8,-200 8,-194 8,-194 8,-20 8,-20 8,-14 14,-8 20,-8"/>
<text text-anchor="middle" x="84" y="-193.2" font-family="Times,serif" font-size="11.00" fill="#c0c0c0">Global</text>
</g>
<g id="clust2" class="cluster">
<title>cluster_\OpenBlock</title>
<path fill="none" stroke="#c0c0c0" d="M28,-16C28,-16 140,-16 140,-16 146,-16 152,-22 152,-28 152,-28 152,-166 152,-166 152,-172 146,-178 140,-178 140,-178 28,-178 28,-178 22,-178 16,-172 16,-166 16,-166 16,-28 16,-28 16,-22 22,-16 28,-16"/>
<text text-anchor="middle" x="84" y="-165.2" font-family="Times,serif" font-size="11.00" fill="#c0c0c0">OpenBlock</text>
</g>
<g id="clust3" class="cluster">
<title>cluster_\OpenBlock\Api</title>
<path fill="none" stroke="#c0c0c0" d="M36,-24C36,-24 132,-24 132,-24 138,-24 144,-30 144,-36 144,-36 144,-138 144,-138 144,-144 138,-150 132,-150 132,-150 36,-150 36,-150 30,-150 24,-144 24,-138 24,-138 24,-36 24,-36 24,-30 30,-24 36,-24"/>
<text text-anchor="middle" x="84" y="-137.2" font-family="Times,serif" font-size="11.00" fill="#c0c0c0">Api</text>
</g>
<!-- \\OpenBlock\\Api\\Authenticator -->
<g id="node1" class="node">
<title>\\OpenBlock\\Api\\Authenticator</title>
<polygon fill="none" stroke="#000000" points="136,-122 32,-122 32,-86 136,-86 136,-122"/>
<text text-anchor="middle" x="84" y="-101.2" font-family="Courier,monospace" font-size="11.00" fill="#000000">Authenticator</text>
</g>
<!-- \\OpenBlock\\Api\\ApiClient -->
<g id="node2" class="node">
<title>\\OpenBlock\\Api\\ApiClient</title>
<polygon fill="none" stroke="#000000" points="122.5,-68 45.5,-68 45.5,-32 122.5,-32 122.5,-68"/>
<text text-anchor="middle" x="84" y="-47.2" font-family="Courier,monospace" font-size="11.00" fill="#000000">ApiClient</text>
</g>
</g>
</svg>
