<?xml version="1.0" encoding="UTF-8" standalone="no"?>
<!DOCTYPE svg PUBLIC "-//W3C//DTD SVG 1.1//EN"
 "http://www.w3.org/Graphics/SVG/1.1/DTD/svg11.dtd">
<!-- Generated by graphviz version 2.40.1 (20161225.0304)
 -->
<!-- Title: G Pages: 1 -->
<svg width="176pt" height="168pt"
 viewBox="0.00 0.00 176.00 168.00" xmlns="http://www.w3.org/2000/svg" xmlns:xlink="http://www.w3.org/1999/xlink">
<g id="graph0" class="graph" transform="scale(1 1) rotate(0) translate(4 164)">
<title>G</title>
<polygon fill="#ffffff" stroke="transparent" points="-4,4 -4,-164 172,-164 172,4 -4,4"/>
<g id="clust1" class="cluster">
<title>cluster_Global</title>
<path fill="none" stroke="#c0c0c0" d="M20,-8C20,-8 148,-8 148,-8 154,-8 160,-14 160,-20 160,-20 160,-140 160,-140 160,-146 154,-152 148,-152 148,-152 20,-152 20,-152 14,-152 8,-146 8,-140 8,-140 8,-20 8,-20 8,-14 14,-8 20,-8"/>
<text text-anchor="middle" x="84" y="-139.2" font-family="Times,serif" font-size="11.00" fill="#c0c0c0">Global</text>
</g>
<g id="clust2" class="cluster">
<title>cluster_\OpenBlock</title>
<path fill="none" stroke="#c0c0c0" d="M28,-16C28,-16 140,-16 140,-16 146,-16 152,-22 152,-28 152,-28 152,-112 152,-112 152,-118 146,-124 140,-124 140,-124 28,-124 28,-124 22,-124 16,-118 16,-112 16,-112 16,-28 16,-28 16,-22 22,-16 28,-16"/>
<text text-anchor="middle" x="84" y="-111.2" font-family="Times,serif" font-size="11.00" fill="#c0c0c0">OpenBlock</text>
</g>
<g id="clust3" class="cluster">
<title>cluster_\OpenBlock\Api</title>
<path fill="none" stroke="#c0c0c0" d="M36,-24C36,-24 132,-24 132,-24 138,-24 144,-30 144,-36 144,-36 144,-84 144,-84 144,-90 138,-96 132,-96 132,-96 36,-96 36,-96 30,-96 24,-90 24,-84 24,-84 24,-36 24,-36 24,-30 30,-24 36,-24"/>
<text text-anchor="middle" x="84" y="-83.2" font-family="Times,serif" font-size="11.00" fill="#c0c0c0">Api</text>
</g>
<!-- \\OpenBlock\\Api\\Authenticator -->
<g id="node1" class="node">
<title>\\OpenBlock\\Api\\Authenticator</title>
<polygon fill="none" stroke="#000000" points="136,-68 32,-68 32,-32 136,-32 136,-68"/>
<text text-anchor="middle" x="84" y="-47.2" font-family="Courier,monospace" font-size="11.00" fill="#000000">Authenticator</text>
</g>
</g>
</svg>
